{"title":"Doomsday.Preppers.S01E08.It's.Gonna.Get.Worse.HDTV.XviD-k3n","uid":7142265,"size":363598320,"categoryP":"video","categoryS":"tv_shows","magnet":"?xt=urn:btih:40a90f6d62c2dc948ffa0b4f4075fdc370361054&amp;dn=Doomsday.Preppers.S01E08.It%27s.Gonna.Get.Worse.HDTV.XviD-k3n&amp;tr=udp%3A%2F%2Ftracker.openbittorrent.com%3A80&amp;tr=udp%3A%2F%2Fopen.demonii.com%3A1337&amp;tr=udp%3A%2F%2Ftracker.coppersurfer.tk%3A6969&amp;tr=udp%3A%2F%2Fexodus.desync.com%3A6969","seeders":0,"leechers":1,"uploader":"k3nd00d","files":-1,"time":1333040342,"description":" &lt;a href=&quot;http://channel.nationalgeographic.com/channel/doomsday-preppers/&quot; rel=&quot;nofollow&quot; target=&quot;_NEW&quot;&gt;http://channel.nationalgeographic.com/channel/doomsday-preppers/&lt;/a&gt;\n  &lt;a href=&quot;\nhttp://channel.nationalgeographic.com/channel/doomsday-preppers/episode-guide/&quot; rel=&quot;nofollow&quot; target=&quot;_NEW&quot;&gt;\nhttp://channel.nationalgeographic.com/channel/doomsday-preppers/episode-guide/&lt;/a&gt;\n &lt;a href=&quot;\nhttp://thetvdb.com/?tab=seasonall&amp;id=255608&amp;lid=7&quot; rel=&quot;nofollow&quot; target=&quot;_NEW&quot;&gt;\nhttp://thetvdb.com/?tab=seasonall&amp;id=255608&amp;lid=7&lt;/a&gt;\n\n\n\nGeneral\nFormat                           : AVI\nFormat/Info                      : Audio Video Interleave\nFile size                        : 347 MiB\nDuration                         : 45mn 9s\nOverall bit rate                 : 1 073 Kbps\n\nVideo\nID                               : 0\nFormat                           : MPEG-4 Visual\nFormat profile                   : Advanced Simple@L5\nFormat settings, BVOP            : 1\nFormat settings, QPel            : No\nFormat settings, GMC             : No warppoints\nFormat settings, Matrix          : Default (H.263)\nMuxing mode                      : Packed bitstream\nCodec ID                         : XVID\nCodec ID/Hint                    : XviD\nDuration                         : 45mn 9s\nBit rate                         : 930 Kbps\nWidth                            : 624 pixels\nHeight                           : 352 pixels\nDisplay aspect ratio             : 16:9\nFrame rate                       : 29.970 fps\nColor space                      : YUV\nChroma subsampling               : 4:2:0\nBit depth                        : 8 bits\nScan type                        : Progressive\nCompression mode                 : Lossy\nBits/(Pixel*Frame)               : 0.141\nStream size                      : 300 MiB (87%)\n\nAudio\nID                               : 1\nFormat                           : MPEG Audio\nFormat version                   : Version 1\nFormat profile                   : Layer 3\nMode                             : Joint stereo\nMode extension                   : MS Stereo\nCodec ID                         : 55\nCodec ID/Hint                    : MP3\nDuration                         : 45mn 9s\nBit rate mode                    : Constant\nBit rate                         : 128 Kbps\nChannel(s)                       : 2 channels\nSampling rate                    : 48.0 KHz\nCompression mode                 : Lossy\nStream size                      : 41.3 MiB (12%)\nAlignment                        : Aligned on interleaves\nInterleave, duration             : 34 ms (1.01 video frame)\nInterleave, preload duration     : 408 ms\n","torrent":{"xt":"urn:btih:40a90f6d62c2dc948ffa0b4f4075fdc370361054","amp;dn":"Doomsday.Preppers.S01E08.It%27s.Gonna.Get.Worse.HDTV.XviD-k3n","amp;tr":["udp%3A%2F%2Ftracker.openbittorrent.com%3A80","udp%3A%2F%2Fopen.demonii.com%3A1337","udp%3A%2F%2Ftracker.coppersurfer.tk%3A6969","udp%3A%2F%2Fexodus.desync.com%3A6969"],"infoHash":"40a90f6d62c2dc948ffa0b4f4075fdc370361054","infoHashBuffer":{"type":"Buffer","data":[64,169,15,109,98,194,220,148,143,250,11,79,64,117,253,195,112,54,16,84]},"announce":[],"urlList":[]}}